# xmcd
#
# Track frame offsets: 
#        150
#        12672
#        25970
#        38127
#        50741
#        63217
#        78135
#        90057
#        104078
#        115547
#        126125
#        137584
#        147436
#        157646
#        169457
#        181121
#        193824
#        206596
#        217914
#        228725
#        240950
#        256513
#        269992
#        280376
#        292685
#
# Disc length: 4038 seconds
#
# Revision: 1
# Processed by: cddbd v1.5.2PL0 Copyright (c) Steve Scherf et al.
# Submitted via: ExactAudioCopyFreeDBPlugin 1.0
#
DISCID=5c0fc419
DTITLE=Various Artist - Just Wailing [CD2]
DYEAR=2013
DGENRE=Blues
TTITLE0=Little Walter - Juke
TTITLE1=Sonny Boy Williamson - Mighty Long Time
TTITLE2=Otis Spann (feat. Walter Horton) - I'm Leaving You
TTITLE3=Snooky Pryor - Judgement Day
TTITLE4=Doctor Ross - Juke Box Boogie
TTITLE5=Forrest City Joe - She Lived Her Life Too Fast
TTITLE6=Sammy Myers - Sleeping In The Ground
TTITLE7=Floyd Jones (feat. Snooky Pryor) - Floyd's Blues
TTITLE8=Sammy Lewis and Willie Johnson - Baby Tell Me Your Name
TTITLE9=Sonny Boy Williamson - Let Your Conscience Be Your Guide
TTITLE10=Johnny Shines (feat. Walter Horton) - Evening Sun
TTITLE11=Jerry McCain - Steady
TTITLE12=Billy Boy Arnold - I Ain't Got You
TTITLE13=Jimmy Reed - She Don't Want Me No More
TTITLE14=Earl Hooker with Junior Wells - Calling All Blues
TTITLE15=Jimmy Rogers (feat. Walter Horton) - Walking By Myself
TTITLE16=Little Walter - I Got To Find My Baby
TTITLE17=Joe Hill Louis - Jack Pot
TTITLE18=Junior Wells - Come On In This House
TTITLE19=Willie Nix (feat. James Cotton) - Baker Shop Boogie
TTITLE20=Robert Richard - Wigwam Woman
TTITLE21=Slim Harpo - Moody Blues
TTITLE22=Howlin' Wolf - Highway My Friend
TTITLE23=Sonny Boy Williamson - Trust My Baby
TTITLE24=Papa Lightfoot - Jumpin' With Jarvis
EXTD=YEAR: 2013
EXTT0=
EXTT1=
EXTT2=
EXTT3=
EXTT4=
EXTT5=
EXTT6=
EXTT7=
EXTT8=
EXTT9=
EXTT10=
EXTT11=
EXTT12=
EXTT13=
EXTT14=
EXTT15=
EXTT16=
EXTT17=
EXTT18=
EXTT19=
EXTT20=
EXTT21=
EXTT22=
EXTT23=
EXTT24=
PLAYORDER=
